<?xml version="1.0" encoding="UTF-8" standalone="no"?>
<!DOCTYPE svg PUBLIC "-//W3C//DTD SVG 1.1//EN"
 "http://www.w3.org/Graphics/SVG/1.1/DTD/svg11.dtd">
<!-- Generated by graphviz version 6.0.1 (0)
 -->
<!-- Pages: 1 -->
<svg width="784pt" height="777pt"
 viewBox="0.00 0.00 784.00 776.72" xmlns="http://www.w3.org/2000/svg" xmlns:xlink="http://www.w3.org/1999/xlink">
<g id="graph0" class="graph" transform="scale(1 1) rotate(0) translate(4 772.72)">
<polygon fill="white" stroke="none" points="-4,4 -4,-772.72 780,-772.72 780,4 -4,4"/>
<g id="clust3" class="cluster">
<title>clusterposition (7) x clone (3)</title>
<path fill="none" stroke="black" d="M20,-240.91C20,-240.91 206,-240.91 206,-240.91 212,-240.91 218,-246.91 218,-252.91 218,-252.91 218,-342.86 218,-342.86 218,-348.86 212,-354.86 206,-354.86 206,-354.86 20,-354.86 20,-354.86 14,-354.86 8,-348.86 8,-342.86 8,-342.86 8,-252.91 8,-252.91 8,-246.91 14,-240.91 20,-240.91"/>
<text text-anchor="middle" x="146.5" y="-248.71" font-family="Times,serif" font-size="14.00">position (7) x clone (3)</text>
</g>
<g id="clust4" class="cluster">
<title>clusterspot (5) x clone (3)</title>
<path fill="none" stroke="black" d="M352,-251.88C352,-251.88 450,-251.88 450,-251.88 456,-251.88 462,-257.88 462,-263.88 462,-263.88 462,-675.72 462,-675.72 462,-681.72 456,-687.72 450,-687.72 450,-687.72 352,-687.72 352,-687.72 346,-687.72 340,-681.72 340,-675.72 340,-675.72 340,-263.88 340,-263.88 340,-257.88 346,-251.88 352,-251.88"/>
<text text-anchor="middle" x="401" y="-259.68" font-family="Times,serif" font-size="14.00">spot (5) x clone (3)</text>
</g>
<g id="clust5" class="cluster">
<title>clusterposition (7) x spot (5)</title>
<path fill="none" stroke="black" d="M132,-8C132,-8 317,-8 317,-8 323,-8 329,-14 329,-20 329,-20 329,-220.91 329,-220.91 329,-226.91 323,-232.91 317,-232.91 317,-232.91 132,-232.91 132,-232.91 126,-232.91 120,-226.91 120,-220.91 120,-220.91 120,-20 120,-20 120,-14 126,-8 132,-8"/>
<text text-anchor="middle" x="261" y="-15.8" font-family="Times,serif" font-size="14.00">position (7) x spot (5)</text>
</g>
<g id="clust1" class="cluster">
<title>clusterclone (3)</title>
<path fill="none" stroke="black" d="M582,-473.79C582,-473.79 666,-473.79 666,-473.79 672,-473.79 678,-479.79 678,-485.79 678,-485.79 678,-664.74 678,-664.74 678,-670.74 672,-676.74 666,-676.74 666,-676.74 582,-676.74 582,-676.74 576,-676.74 570,-670.74 570,-664.74 570,-664.74 570,-485.79 570,-485.79 570,-479.79 576,-473.79 582,-473.79"/>
<text text-anchor="middle" x="645.5" y="-481.59" font-family="Times,serif" font-size="14.00">clone (3)</text>
</g>
<g id="clust2" class="cluster">
<title>clusterspot (5)</title>
<path fill="none" stroke="black" d="M238,-240.91C238,-240.91 320,-240.91 320,-240.91 326,-240.91 332,-246.91 332,-252.91 332,-252.91 332,-442.84 332,-442.84 332,-448.84 326,-454.84 320,-454.84 320,-454.84 238,-454.84 238,-454.84 232,-454.84 226,-448.84 226,-442.84 226,-442.84 226,-252.91 226,-252.91 226,-246.91 232,-240.91 238,-240.91"/>
<text text-anchor="middle" x="302.5" y="-248.71" font-family="Times,serif" font-size="14.00">spot (5)</text>
</g>
<!-- p -->
<g id="node1" class="node">
<title>p</title>
<path fill="lightgrey" stroke="black" d="M94,-446.84C94,-446.84 28,-446.84 28,-446.84 22,-446.84 16,-440.84 16,-434.84 16,-434.84 16,-405.84 16,-405.84 16,-399.84 22,-393.84 28,-393.84 28,-393.84 94,-393.84 94,-393.84 100,-393.84 106,-399.84 106,-405.84 106,-405.84 106,-434.84 106,-434.84 106,-440.84 100,-446.84 94,-446.84"/>
<text text-anchor="middle" x="61" y="-431.64" font-family="Times,serif" font-size="14.00">p</text>
<text text-anchor="middle" x="61" y="-416.64" font-family="Times,serif" font-size="14.00">~</text>
<text text-anchor="middle" x="61" y="-401.64" font-family="Times,serif" font-size="14.00">ConstantData</text>
</g>
<!-- Φ -->
<g id="node10" class="node">
<title>Φ</title>
<ellipse fill="none" stroke="black" cx="167" cy="-309.38" rx="43.27" ry="37.45"/>
<text text-anchor="middle" x="167" y="-320.68" font-family="Times,serif" font-size="14.00">Φ</text>
<text text-anchor="middle" x="167" y="-305.68" font-family="Times,serif" font-size="14.00">~</text>
<text text-anchor="middle" x="167" y="-290.68" font-family="Times,serif" font-size="14.00">Gamma</text>
</g>
<!-- p&#45;&gt;Φ -->
<g id="edge11" class="edge">
<title>p&#45;&gt;Φ</title>
<path fill="none" stroke="black" d="M85.85,-393.79C99.74,-379.52 117.25,-361.52 132.45,-345.9"/>
<polygon fill="black" stroke="black" points="135.23,-348.05 139.7,-338.45 130.22,-343.17 135.23,-348.05"/>
</g>
<!-- F0 -->
<g id="node2" class="node">
<title>F0</title>
<path fill="lightgrey" stroke="black" d="M548,-557.79C548,-557.79 482,-557.79 482,-557.79 476,-557.79 470,-551.79 470,-545.79 470,-545.79 470,-516.79 470,-516.79 470,-510.79 476,-504.79 482,-504.79 482,-504.79 548,-504.79 548,-504.79 554,-504.79 560,-510.79 560,-516.79 560,-516.79 560,-545.79 560,-545.79 560,-551.79 554,-557.79 548,-557.79"/>
<text text-anchor="middle" x="515" y="-542.59" font-family="Times,serif" font-size="14.00">F0</text>
<text text-anchor="middle" x="515" y="-527.59" font-family="Times,serif" font-size="14.00">~</text>
<text text-anchor="middle" x="515" y="-512.59" font-family="Times,serif" font-size="14.00">ConstantData</text>
</g>
<!-- G -->
<g id="node13" class="node">
<title>G</title>
<ellipse fill="none" stroke="black" cx="407" cy="-420.34" rx="43.27" ry="37.45"/>
<text text-anchor="middle" x="407" y="-431.64" font-family="Times,serif" font-size="14.00">G</text>
<text text-anchor="middle" x="407" y="-416.64" font-family="Times,serif" font-size="14.00">~</text>
<text text-anchor="middle" x="407" y="-401.64" font-family="Times,serif" font-size="14.00">Gamma</text>
</g>
<!-- F0&#45;&gt;G -->
<g id="edge6" class="edge">
<title>F0&#45;&gt;G</title>
<path fill="none" stroke="black" d="M493.97,-504.63C485.55,-494.74 475.58,-483.49 466,-473.79 459.42,-467.13 452.15,-460.29 445.03,-453.84"/>
<polygon fill="black" stroke="black" points="447.19,-451.08 437.4,-447.02 442.53,-456.3 447.19,-451.08"/>
</g>
<!-- ℓ -->
<g id="node3" class="node">
<title>ℓ</title>
<path fill="lightgrey" stroke="black" d="M764,-668.74C764,-668.74 698,-668.74 698,-668.74 692,-668.74 686,-662.74 686,-656.74 686,-656.74 686,-627.74 686,-627.74 686,-621.74 692,-615.74 698,-615.74 698,-615.74 764,-615.74 764,-615.74 770,-615.74 776,-621.74 776,-627.74 776,-627.74 776,-656.74 776,-656.74 776,-662.74 770,-668.74 764,-668.74"/>
<text text-anchor="middle" x="731" y="-653.54" font-family="Times,serif" font-size="14.00">ℓ</text>
<text text-anchor="middle" x="731" y="-638.54" font-family="Times,serif" font-size="14.00">~</text>
<text text-anchor="middle" x="731" y="-623.54" font-family="Times,serif" font-size="14.00">ConstantData</text>
</g>
<!-- F_prime -->
<g id="node7" class="node">
<title>F_prime</title>
<polygon fill="none" stroke="black" points="669.5,-557.79 578.5,-557.79 578.5,-504.79 669.5,-504.79 669.5,-557.79"/>
<text text-anchor="middle" x="624" y="-542.59" font-family="Times,serif" font-size="14.00">F_prime</text>
<text text-anchor="middle" x="624" y="-527.59" font-family="Times,serif" font-size="14.00">~</text>
<text text-anchor="middle" x="624" y="-512.59" font-family="Times,serif" font-size="14.00">Deterministic</text>
</g>
<!-- ℓ&#45;&gt;F_prime -->
<g id="edge2" class="edge">
<title>ℓ&#45;&gt;F_prime</title>
<path fill="none" stroke="black" d="M705.91,-615.7C691.13,-600.64 672.27,-581.44 656.37,-565.25"/>
<polygon fill="black" stroke="black" points="658.8,-562.73 649.3,-558.05 653.81,-567.64 658.8,-562.73"/>
</g>
<!-- r -->
<g id="node4" class="node">
<title>r</title>
<path fill="lightgrey" stroke="black" d="M202,-446.84C202,-446.84 136,-446.84 136,-446.84 130,-446.84 124,-440.84 124,-434.84 124,-434.84 124,-405.84 124,-405.84 124,-399.84 130,-393.84 136,-393.84 136,-393.84 202,-393.84 202,-393.84 208,-393.84 214,-399.84 214,-405.84 214,-405.84 214,-434.84 214,-434.84 214,-440.84 208,-446.84 202,-446.84"/>
<text text-anchor="middle" x="169" y="-431.64" font-family="Times,serif" font-size="14.00">r</text>
<text text-anchor="middle" x="169" y="-416.64" font-family="Times,serif" font-size="14.00">~</text>
<text text-anchor="middle" x="169" y="-401.64" font-family="Times,serif" font-size="14.00">ConstantData</text>
</g>
<!-- r&#45;&gt;Φ -->
<g id="edge10" class="edge">
<title>r&#45;&gt;Φ</title>
<path fill="none" stroke="black" d="M168.53,-393.79C168.33,-382.88 168.09,-369.79 167.86,-357.25"/>
<polygon fill="black" stroke="black" points="171.35,-356.84 167.67,-346.91 164.35,-356.97 171.35,-356.84"/>
</g>
<!-- ζ_s -->
<g id="node5" class="node">
<title>ζ_s</title>
<path fill="lightgrey" stroke="black" d="M437,-768.72C437,-768.72 371,-768.72 371,-768.72 365,-768.72 359,-762.72 359,-756.72 359,-756.72 359,-727.72 359,-727.72 359,-721.72 365,-715.72 371,-715.72 371,-715.72 437,-715.72 437,-715.72 443,-715.72 449,-721.72 449,-727.72 449,-727.72 449,-756.72 449,-756.72 449,-762.72 443,-768.72 437,-768.72"/>
<text text-anchor="middle" x="404" y="-753.52" font-family="Times,serif" font-size="14.00">ζ_s</text>
<text text-anchor="middle" x="404" y="-738.52" font-family="Times,serif" font-size="14.00">~</text>
<text text-anchor="middle" x="404" y="-723.52" font-family="Times,serif" font-size="14.00">ConstantData</text>
</g>
<!-- Π -->
<g id="node14" class="node">
<title>Π</title>
<ellipse fill="none" stroke="black" cx="404" cy="-642.24" rx="28.98" ry="37.45"/>
<text text-anchor="middle" x="404" y="-653.54" font-family="Times,serif" font-size="14.00">Π</text>
<text text-anchor="middle" x="404" y="-638.54" font-family="Times,serif" font-size="14.00">~</text>
<text text-anchor="middle" x="404" y="-623.54" font-family="Times,serif" font-size="14.00">Beta</text>
</g>
<!-- ζ_s&#45;&gt;Π -->
<g id="edge3" class="edge">
<title>ζ_s&#45;&gt;Π</title>
<path fill="none" stroke="black" d="M404,-715.48C404,-707.65 404,-698.8 404,-690.04"/>
<polygon fill="black" stroke="black" points="407.5,-689.87 404,-679.87 400.5,-689.87 407.5,-689.87"/>
</g>
<!-- F -->
<g id="node6" class="node">
<title>F</title>
<path fill="lightgrey" stroke="black" d="M656,-668.74C656,-668.74 590,-668.74 590,-668.74 584,-668.74 578,-662.74 578,-656.74 578,-656.74 578,-627.74 578,-627.74 578,-621.74 584,-615.74 590,-615.74 590,-615.74 656,-615.74 656,-615.74 662,-615.74 668,-621.74 668,-627.74 668,-627.74 668,-656.74 668,-656.74 668,-662.74 662,-668.74 656,-668.74"/>
<text text-anchor="middle" x="623" y="-653.54" font-family="Times,serif" font-size="14.00">F</text>
<text text-anchor="middle" x="623" y="-638.54" font-family="Times,serif" font-size="14.00">~</text>
<text text-anchor="middle" x="623" y="-623.54" font-family="Times,serif" font-size="14.00">ConstantData</text>
</g>
<!-- F&#45;&gt;F_prime -->
<g id="edge1" class="edge">
<title>F&#45;&gt;F_prime</title>
<path fill="none" stroke="black" d="M623.23,-615.7C623.36,-601.59 623.53,-583.84 623.67,-568.35"/>
<polygon fill="black" stroke="black" points="627.17,-568.08 623.76,-558.05 620.17,-568.02 627.17,-568.08"/>
</g>
<!-- F_prime&#45;&gt;G -->
<g id="edge5" class="edge">
<title>F_prime&#45;&gt;G</title>
<path fill="none" stroke="black" d="M603.99,-504.74C594.39,-493.92 582.14,-481.95 569,-473.79 535.21,-452.79 492.17,-439.38 458.96,-431.37"/>
<polygon fill="black" stroke="black" points="459.51,-427.91 448.98,-429.06 457.93,-434.73 459.51,-427.91"/>
</g>
<!-- Λ -->
<g id="node8" class="node">
<title>Λ</title>
<path fill="lightgrey" stroke="black" d="M312,-446.84C312,-446.84 246,-446.84 246,-446.84 240,-446.84 234,-440.84 234,-434.84 234,-434.84 234,-405.84 234,-405.84 234,-399.84 240,-393.84 246,-393.84 246,-393.84 312,-393.84 312,-393.84 318,-393.84 324,-399.84 324,-405.84 324,-405.84 324,-434.84 324,-434.84 324,-440.84 318,-446.84 312,-446.84"/>
<text text-anchor="middle" x="279" y="-431.64" font-family="Times,serif" font-size="14.00">Λ</text>
<text text-anchor="middle" x="279" y="-416.64" font-family="Times,serif" font-size="14.00">~</text>
<text text-anchor="middle" x="279" y="-401.64" font-family="Times,serif" font-size="14.00">ConstantData</text>
</g>
<!-- N -->
<g id="node9" class="node">
<title>N</title>
<ellipse fill="none" stroke="black" cx="279" cy="-309.38" rx="41.94" ry="37.45"/>
<text text-anchor="middle" x="279" y="-320.68" font-family="Times,serif" font-size="14.00">N</text>
<text text-anchor="middle" x="279" y="-305.68" font-family="Times,serif" font-size="14.00">~</text>
<text text-anchor="middle" x="279" y="-290.68" font-family="Times,serif" font-size="14.00">Poisson</text>
</g>
<!-- Λ&#45;&gt;N -->
<g id="edge9" class="edge">
<title>Λ&#45;&gt;N</title>
<path fill="none" stroke="black" d="M279,-393.79C279,-382.88 279,-369.79 279,-357.25"/>
<polygon fill="black" stroke="black" points="282.5,-356.91 279,-346.91 275.5,-356.91 282.5,-356.91"/>
</g>
<!-- D -->
<g id="node16" class="node">
<title>D</title>
<ellipse fill="lightgrey" stroke="black" cx="279" cy="-187.43" rx="41.94" ry="37.45"/>
<text text-anchor="middle" x="279" y="-198.73" font-family="Times,serif" font-size="14.00">D</text>
<text text-anchor="middle" x="279" y="-183.73" font-family="Times,serif" font-size="14.00">~</text>
<text text-anchor="middle" x="279" y="-168.73" font-family="Times,serif" font-size="14.00">Poisson</text>
</g>
<!-- N&#45;&gt;D -->
<g id="edge13" class="edge">
<title>N&#45;&gt;D</title>
<path fill="none" stroke="black" d="M279,-271.74C279,-260.34 279,-247.6 279,-235.58"/>
<polygon fill="black" stroke="black" points="282.5,-235.26 279,-225.26 275.5,-235.26 282.5,-235.26"/>
</g>
<!-- A_prob -->
<g id="node18" class="node">
<title>A_prob</title>
<polygon fill="none" stroke="black" points="219.5,-213.93 128.5,-213.93 128.5,-160.93 219.5,-160.93 219.5,-213.93"/>
<text text-anchor="middle" x="174" y="-198.73" font-family="Times,serif" font-size="14.00">A_prob</text>
<text text-anchor="middle" x="174" y="-183.73" font-family="Times,serif" font-size="14.00">~</text>
<text text-anchor="middle" x="174" y="-168.73" font-family="Times,serif" font-size="14.00">Deterministic</text>
</g>
<!-- Φ&#45;&gt;A_prob -->
<g id="edge14" class="edge">
<title>Φ&#45;&gt;A_prob</title>
<path fill="none" stroke="black" d="M169.14,-271.74C170.01,-256.77 171.02,-239.51 171.89,-224.59"/>
<polygon fill="black" stroke="black" points="175.41,-224.39 172.5,-214.2 168.42,-223.98 175.41,-224.39"/>
</g>
<!-- C -->
<g id="node11" class="node">
<title>C</title>
<path fill="lightgrey" stroke="black" d="M94,-335.88C94,-335.88 28,-335.88 28,-335.88 22,-335.88 16,-329.88 16,-323.88 16,-323.88 16,-294.88 16,-294.88 16,-288.88 22,-282.88 28,-282.88 28,-282.88 94,-282.88 94,-282.88 100,-282.88 106,-288.88 106,-294.88 106,-294.88 106,-323.88 106,-323.88 106,-329.88 100,-335.88 94,-335.88"/>
<text text-anchor="middle" x="61" y="-320.68" font-family="Times,serif" font-size="14.00">C</text>
<text text-anchor="middle" x="61" y="-305.68" font-family="Times,serif" font-size="14.00">~</text>
<text text-anchor="middle" x="61" y="-290.68" font-family="Times,serif" font-size="14.00">ConstantData</text>
</g>
<!-- C&#45;&gt;A_prob -->
<g id="edge16" class="edge">
<title>C&#45;&gt;A_prob</title>
<path fill="none" stroke="black" d="M79.78,-282.87C89.75,-269.87 102.5,-254.07 115,-240.91 121.38,-234.19 128.5,-227.36 135.52,-220.95"/>
<polygon fill="black" stroke="black" points="137.96,-223.47 143.07,-214.18 133.29,-218.25 137.96,-223.47"/>
</g>
<!-- H -->
<g id="node12" class="node">
<title>H</title>
<polygon fill="none" stroke="black" points="439.5,-335.88 348.5,-335.88 348.5,-282.88 439.5,-282.88 439.5,-335.88"/>
<text text-anchor="middle" x="394" y="-320.68" font-family="Times,serif" font-size="14.00">H</text>
<text text-anchor="middle" x="394" y="-305.68" font-family="Times,serif" font-size="14.00">~</text>
<text text-anchor="middle" x="394" y="-290.68" font-family="Times,serif" font-size="14.00">Deterministic</text>
</g>
<!-- H&#45;&gt;D -->
<g id="edge12" class="edge">
<title>H&#45;&gt;D</title>
<path fill="none" stroke="black" d="M373.19,-282.77C362.43,-269.9 348.88,-254.24 336,-240.91 329.62,-234.3 322.58,-227.48 315.7,-221.04"/>
<polygon fill="black" stroke="black" points="318.04,-218.44 308.32,-214.22 313.29,-223.58 318.04,-218.44"/>
</g>
<!-- H&#45;&gt;A_prob -->
<g id="edge15" class="edge">
<title>H&#45;&gt;A_prob</title>
<path fill="none" stroke="black" d="M379.17,-282.69C369.06,-267.75 354.2,-250.09 336,-240.91 293.03,-219.22 272.67,-250.83 228,-232.91 220.47,-229.89 213.19,-225.41 206.55,-220.45"/>
<polygon fill="black" stroke="black" points="208.49,-217.52 198.5,-213.98 204.1,-222.98 208.49,-217.52"/>
</g>
<!-- G&#45;&gt;H -->
<g id="edge8" class="edge">
<title>G&#45;&gt;H</title>
<path fill="none" stroke="black" d="M402.64,-382.75C401.22,-370.9 399.65,-357.77 398.25,-345.98"/>
<polygon fill="black" stroke="black" points="401.72,-345.55 397.06,-336.04 394.77,-346.38 401.72,-345.55"/>
</g>
<!-- Z -->
<g id="node15" class="node">
<title>Z</title>
<ellipse fill="none" stroke="black" cx="404" cy="-531.29" rx="48.17" ry="37.45"/>
<text text-anchor="middle" x="404" y="-542.59" font-family="Times,serif" font-size="14.00">Z</text>
<text text-anchor="middle" x="404" y="-527.59" font-family="Times,serif" font-size="14.00">~</text>
<text text-anchor="middle" x="404" y="-512.59" font-family="Times,serif" font-size="14.00">Bernoulli</text>
</g>
<!-- Π&#45;&gt;Z -->
<g id="edge4" class="edge">
<title>Π&#45;&gt;Z</title>
<path fill="none" stroke="black" d="M404,-604.66C404,-596.49 404,-587.71 404,-579.18"/>
<polygon fill="black" stroke="black" points="407.5,-578.96 404,-568.96 400.5,-578.96 407.5,-578.96"/>
</g>
<!-- Z&#45;&gt;G -->
<g id="edge7" class="edge">
<title>Z&#45;&gt;G</title>
<path fill="none" stroke="black" d="M405.01,-493.71C405.23,-485.53 405.47,-476.75 405.71,-468.23"/>
<polygon fill="black" stroke="black" points="409.21,-468.1 405.99,-458.01 402.22,-467.91 409.21,-468.1"/>
</g>
<!-- A -->
<g id="node17" class="node">
<title>A</title>
<ellipse fill="lightgrey" stroke="black" cx="224" cy="-76.48" rx="48.17" ry="37.45"/>
<text text-anchor="middle" x="224" y="-87.78" font-family="Times,serif" font-size="14.00">A</text>
<text text-anchor="middle" x="224" y="-72.78" font-family="Times,serif" font-size="14.00">~</text>
<text text-anchor="middle" x="224" y="-57.78" font-family="Times,serif" font-size="14.00">Binomial</text>
</g>
<!-- D&#45;&gt;A -->
<g id="edge17" class="edge">
<title>D&#45;&gt;A</title>
<path fill="none" stroke="black" d="M262.05,-152.85C256.92,-142.7 251.22,-131.4 245.82,-120.71"/>
<polygon fill="black" stroke="black" points="248.81,-118.86 241.18,-111.51 242.56,-122.01 248.81,-118.86"/>
</g>
<!-- A_prob&#45;&gt;A -->
<g id="edge18" class="edge">
<title>A_prob&#45;&gt;A</title>
<path fill="none" stroke="black" d="M185.72,-160.89C191.16,-149.03 197.79,-134.6 203.98,-121.09"/>
<polygon fill="black" stroke="black" points="207.2,-122.48 208.19,-111.94 200.83,-119.56 207.2,-122.48"/>
</g>
</g>
</svg>
