<?xml version="1.0" encoding="UTF-8" standalone="no"?>
<!DOCTYPE svg PUBLIC "-//W3C//DTD SVG 1.1//EN"
 "http://www.w3.org/Graphics/SVG/1.1/DTD/svg11.dtd">
<!-- Generated by graphviz version 6.0.1 (0)
 -->
<!-- Pages: 1 -->
<svg width="684pt" height="777pt"
 viewBox="0.00 0.00 684.00 776.72" xmlns="http://www.w3.org/2000/svg" xmlns:xlink="http://www.w3.org/1999/xlink">
<g id="graph0" class="graph" transform="scale(1 1) rotate(0) translate(4 772.72)">
<polygon fill="white" stroke="none" points="-4,4 -4,-772.72 680,-772.72 680,4 -4,4"/>
<g id="clust3" class="cluster">
<title>clusterposition (7) x clone (3)</title>
<path fill="none" stroke="black" d="M470,-240.91C470,-240.91 656,-240.91 656,-240.91 662,-240.91 668,-246.91 668,-252.91 668,-252.91 668,-342.86 668,-342.86 668,-348.86 662,-354.86 656,-354.86 656,-354.86 470,-354.86 470,-354.86 464,-354.86 458,-348.86 458,-342.86 458,-342.86 458,-252.91 458,-252.91 458,-246.91 464,-240.91 470,-240.91"/>
<text text-anchor="middle" x="596.5" y="-248.71" font-family="Times,serif" font-size="14.00">position (7) x clone (3)</text>
</g>
<g id="clust4" class="cluster">
<title>clusterspot (5) x clone (3)</title>
<path fill="none" stroke="black" d="M226,-251.88C226,-251.88 324,-251.88 324,-251.88 330,-251.88 336,-257.88 336,-263.88 336,-263.88 336,-675.72 336,-675.72 336,-681.72 330,-687.72 324,-687.72 324,-687.72 226,-687.72 226,-687.72 220,-687.72 214,-681.72 214,-675.72 214,-675.72 214,-263.88 214,-263.88 214,-257.88 220,-251.88 226,-251.88"/>
<text text-anchor="middle" x="275" y="-259.68" font-family="Times,serif" font-size="14.00">spot (5) x clone (3)</text>
</g>
<g id="clust5" class="cluster">
<title>clusterposition (7) x spot (5)</title>
<path fill="none" stroke="black" d="M359,-8C359,-8 544,-8 544,-8 550,-8 556,-14 556,-20 556,-20 556,-220.91 556,-220.91 556,-226.91 550,-232.91 544,-232.91 544,-232.91 359,-232.91 359,-232.91 353,-232.91 347,-226.91 347,-220.91 347,-220.91 347,-20 347,-20 347,-14 353,-8 359,-8"/>
<text text-anchor="middle" x="488" y="-15.8" font-family="Times,serif" font-size="14.00">position (7) x spot (5)</text>
</g>
<g id="clust1" class="cluster">
<title>clusterclone (3)</title>
<path fill="none" stroke="black" d="M110,-473.79C110,-473.79 194,-473.79 194,-473.79 200,-473.79 206,-479.79 206,-485.79 206,-485.79 206,-664.74 206,-664.74 206,-670.74 200,-676.74 194,-676.74 194,-676.74 110,-676.74 110,-676.74 104,-676.74 98,-670.74 98,-664.74 98,-664.74 98,-485.79 98,-485.79 98,-479.79 104,-473.79 110,-473.79"/>
<text text-anchor="middle" x="173.5" y="-481.59" font-family="Times,serif" font-size="14.00">clone (3)</text>
</g>
<g id="clust2" class="cluster">
<title>clusterspot (5)</title>
<path fill="none" stroke="black" d="M356,-240.91C356,-240.91 438,-240.91 438,-240.91 444,-240.91 450,-246.91 450,-252.91 450,-252.91 450,-442.84 450,-442.84 450,-448.84 444,-454.84 438,-454.84 438,-454.84 356,-454.84 356,-454.84 350,-454.84 344,-448.84 344,-442.84 344,-442.84 344,-252.91 344,-252.91 344,-246.91 350,-240.91 356,-240.91"/>
<text text-anchor="middle" x="420.5" y="-248.71" font-family="Times,serif" font-size="14.00">spot (5)</text>
</g>
<!-- ℓ -->
<g id="node1" class="node">
<title>ℓ</title>
<path fill="lightgrey" stroke="black" d="M78,-668.74C78,-668.74 12,-668.74 12,-668.74 6,-668.74 0,-662.74 0,-656.74 0,-656.74 0,-627.74 0,-627.74 0,-621.74 6,-615.74 12,-615.74 12,-615.74 78,-615.74 78,-615.74 84,-615.74 90,-621.74 90,-627.74 90,-627.74 90,-656.74 90,-656.74 90,-662.74 84,-668.74 78,-668.74"/>
<text text-anchor="middle" x="45" y="-653.54" font-family="Times,serif" font-size="14.00">ℓ</text>
<text text-anchor="middle" x="45" y="-638.54" font-family="Times,serif" font-size="14.00">~</text>
<text text-anchor="middle" x="45" y="-623.54" font-family="Times,serif" font-size="14.00">ConstantData</text>
</g>
<!-- F_prime -->
<g id="node6" class="node">
<title>F_prime</title>
<polygon fill="none" stroke="black" points="197.5,-557.79 106.5,-557.79 106.5,-504.79 197.5,-504.79 197.5,-557.79"/>
<text text-anchor="middle" x="152" y="-542.59" font-family="Times,serif" font-size="14.00">F_prime</text>
<text text-anchor="middle" x="152" y="-527.59" font-family="Times,serif" font-size="14.00">~</text>
<text text-anchor="middle" x="152" y="-512.59" font-family="Times,serif" font-size="14.00">Deterministic</text>
</g>
<!-- ℓ&#45;&gt;F_prime -->
<g id="edge1" class="edge">
<title>ℓ&#45;&gt;F_prime</title>
<path fill="none" stroke="black" d="M70.09,-615.7C84.87,-600.64 103.73,-581.44 119.63,-565.25"/>
<polygon fill="black" stroke="black" points="122.19,-567.64 126.7,-558.05 117.2,-562.73 122.19,-567.64"/>
</g>
<!-- ζ_s -->
<g id="node2" class="node">
<title>ζ_s</title>
<path fill="lightgrey" stroke="black" d="M312,-768.72C312,-768.72 246,-768.72 246,-768.72 240,-768.72 234,-762.72 234,-756.72 234,-756.72 234,-727.72 234,-727.72 234,-721.72 240,-715.72 246,-715.72 246,-715.72 312,-715.72 312,-715.72 318,-715.72 324,-721.72 324,-727.72 324,-727.72 324,-756.72 324,-756.72 324,-762.72 318,-768.72 312,-768.72"/>
<text text-anchor="middle" x="279" y="-753.52" font-family="Times,serif" font-size="14.00">ζ_s</text>
<text text-anchor="middle" x="279" y="-738.52" font-family="Times,serif" font-size="14.00">~</text>
<text text-anchor="middle" x="279" y="-723.52" font-family="Times,serif" font-size="14.00">ConstantData</text>
</g>
<!-- Π -->
<g id="node15" class="node">
<title>Π</title>
<ellipse fill="none" stroke="black" cx="279" cy="-642.24" rx="28.98" ry="37.45"/>
<text text-anchor="middle" x="279" y="-653.54" font-family="Times,serif" font-size="14.00">Π</text>
<text text-anchor="middle" x="279" y="-638.54" font-family="Times,serif" font-size="14.00">~</text>
<text text-anchor="middle" x="279" y="-623.54" font-family="Times,serif" font-size="14.00">Beta</text>
</g>
<!-- ζ_s&#45;&gt;Π -->
<g id="edge3" class="edge">
<title>ζ_s&#45;&gt;Π</title>
<path fill="none" stroke="black" d="M279,-715.48C279,-707.65 279,-698.8 279,-690.04"/>
<polygon fill="black" stroke="black" points="282.5,-689.87 279,-679.87 275.5,-689.87 282.5,-689.87"/>
</g>
<!-- r -->
<g id="node3" class="node">
<title>r</title>
<path fill="lightgrey" stroke="black" d="M540,-446.84C540,-446.84 474,-446.84 474,-446.84 468,-446.84 462,-440.84 462,-434.84 462,-434.84 462,-405.84 462,-405.84 462,-399.84 468,-393.84 474,-393.84 474,-393.84 540,-393.84 540,-393.84 546,-393.84 552,-399.84 552,-405.84 552,-405.84 552,-434.84 552,-434.84 552,-440.84 546,-446.84 540,-446.84"/>
<text text-anchor="middle" x="507" y="-431.64" font-family="Times,serif" font-size="14.00">r</text>
<text text-anchor="middle" x="507" y="-416.64" font-family="Times,serif" font-size="14.00">~</text>
<text text-anchor="middle" x="507" y="-401.64" font-family="Times,serif" font-size="14.00">ConstantData</text>
</g>
<!-- Φ -->
<g id="node11" class="node">
<title>Φ</title>
<ellipse fill="none" stroke="black" cx="509" cy="-309.38" rx="43.27" ry="37.45"/>
<text text-anchor="middle" x="509" y="-320.68" font-family="Times,serif" font-size="14.00">Φ</text>
<text text-anchor="middle" x="509" y="-305.68" font-family="Times,serif" font-size="14.00">~</text>
<text text-anchor="middle" x="509" y="-290.68" font-family="Times,serif" font-size="14.00">Gamma</text>
</g>
<!-- r&#45;&gt;Φ -->
<g id="edge10" class="edge">
<title>r&#45;&gt;Φ</title>
<path fill="none" stroke="black" d="M507.47,-393.79C507.67,-382.88 507.91,-369.79 508.14,-357.25"/>
<polygon fill="black" stroke="black" points="511.65,-356.97 508.33,-346.91 504.65,-356.84 511.65,-356.97"/>
</g>
<!-- F0 -->
<g id="node4" class="node">
<title>F0</title>
<path fill="lightgrey" stroke="black" d="M423,-557.79C423,-557.79 357,-557.79 357,-557.79 351,-557.79 345,-551.79 345,-545.79 345,-545.79 345,-516.79 345,-516.79 345,-510.79 351,-504.79 357,-504.79 357,-504.79 423,-504.79 423,-504.79 429,-504.79 435,-510.79 435,-516.79 435,-516.79 435,-545.79 435,-545.79 435,-551.79 429,-557.79 423,-557.79"/>
<text text-anchor="middle" x="390" y="-542.59" font-family="Times,serif" font-size="14.00">F0</text>
<text text-anchor="middle" x="390" y="-527.59" font-family="Times,serif" font-size="14.00">~</text>
<text text-anchor="middle" x="390" y="-512.59" font-family="Times,serif" font-size="14.00">ConstantData</text>
</g>
<!-- G -->
<g id="node12" class="node">
<title>G</title>
<ellipse fill="none" stroke="black" cx="280" cy="-420.34" rx="43.27" ry="37.45"/>
<text text-anchor="middle" x="280" y="-431.64" font-family="Times,serif" font-size="14.00">G</text>
<text text-anchor="middle" x="280" y="-416.64" font-family="Times,serif" font-size="14.00">~</text>
<text text-anchor="middle" x="280" y="-401.64" font-family="Times,serif" font-size="14.00">Gamma</text>
</g>
<!-- F0&#45;&gt;G -->
<g id="edge5" class="edge">
<title>F0&#45;&gt;G</title>
<path fill="none" stroke="black" d="M368.52,-504.63C359.92,-494.73 349.75,-483.49 340,-473.79 333.3,-467.13 325.9,-460.29 318.66,-453.84"/>
<polygon fill="black" stroke="black" points="320.72,-450.99 310.9,-447.02 316.1,-456.25 320.72,-450.99"/>
</g>
<!-- p -->
<g id="node5" class="node">
<title>p</title>
<path fill="lightgrey" stroke="black" d="M648,-446.84C648,-446.84 582,-446.84 582,-446.84 576,-446.84 570,-440.84 570,-434.84 570,-434.84 570,-405.84 570,-405.84 570,-399.84 576,-393.84 582,-393.84 582,-393.84 648,-393.84 648,-393.84 654,-393.84 660,-399.84 660,-405.84 660,-405.84 660,-434.84 660,-434.84 660,-440.84 654,-446.84 648,-446.84"/>
<text text-anchor="middle" x="615" y="-431.64" font-family="Times,serif" font-size="14.00">p</text>
<text text-anchor="middle" x="615" y="-416.64" font-family="Times,serif" font-size="14.00">~</text>
<text text-anchor="middle" x="615" y="-401.64" font-family="Times,serif" font-size="14.00">ConstantData</text>
</g>
<!-- p&#45;&gt;Φ -->
<g id="edge11" class="edge">
<title>p&#45;&gt;Φ</title>
<path fill="none" stroke="black" d="M590.15,-393.79C576.26,-379.52 558.75,-361.52 543.55,-345.9"/>
<polygon fill="black" stroke="black" points="545.78,-343.17 536.3,-338.45 540.77,-348.05 545.78,-343.17"/>
</g>
<!-- F_prime&#45;&gt;G -->
<g id="edge7" class="edge">
<title>F_prime&#45;&gt;G</title>
<path fill="none" stroke="black" d="M177.03,-504.52C187.01,-494.61 198.78,-483.39 210,-473.79 219.01,-466.08 229.05,-458.19 238.63,-450.95"/>
<polygon fill="black" stroke="black" points="240.99,-453.56 246.91,-444.77 236.8,-447.95 240.99,-453.56"/>
</g>
<!-- F -->
<g id="node7" class="node">
<title>F</title>
<path fill="lightgrey" stroke="black" d="M186,-668.74C186,-668.74 120,-668.74 120,-668.74 114,-668.74 108,-662.74 108,-656.74 108,-656.74 108,-627.74 108,-627.74 108,-621.74 114,-615.74 120,-615.74 120,-615.74 186,-615.74 186,-615.74 192,-615.74 198,-621.74 198,-627.74 198,-627.74 198,-656.74 198,-656.74 198,-662.74 192,-668.74 186,-668.74"/>
<text text-anchor="middle" x="153" y="-653.54" font-family="Times,serif" font-size="14.00">F</text>
<text text-anchor="middle" x="153" y="-638.54" font-family="Times,serif" font-size="14.00">~</text>
<text text-anchor="middle" x="153" y="-623.54" font-family="Times,serif" font-size="14.00">ConstantData</text>
</g>
<!-- F&#45;&gt;F_prime -->
<g id="edge2" class="edge">
<title>F&#45;&gt;F_prime</title>
<path fill="none" stroke="black" d="M152.77,-615.7C152.64,-601.59 152.47,-583.84 152.33,-568.35"/>
<polygon fill="black" stroke="black" points="155.83,-568.02 152.24,-558.05 148.83,-568.08 155.83,-568.02"/>
</g>
<!-- N -->
<g id="node8" class="node">
<title>N</title>
<ellipse fill="none" stroke="black" cx="397" cy="-309.38" rx="41.94" ry="37.45"/>
<text text-anchor="middle" x="397" y="-320.68" font-family="Times,serif" font-size="14.00">N</text>
<text text-anchor="middle" x="397" y="-305.68" font-family="Times,serif" font-size="14.00">~</text>
<text text-anchor="middle" x="397" y="-290.68" font-family="Times,serif" font-size="14.00">Poisson</text>
</g>
<!-- D -->
<g id="node17" class="node">
<title>D</title>
<ellipse fill="lightgrey" stroke="black" cx="397" cy="-187.43" rx="41.94" ry="37.45"/>
<text text-anchor="middle" x="397" y="-198.73" font-family="Times,serif" font-size="14.00">D</text>
<text text-anchor="middle" x="397" y="-183.73" font-family="Times,serif" font-size="14.00">~</text>
<text text-anchor="middle" x="397" y="-168.73" font-family="Times,serif" font-size="14.00">Poisson</text>
</g>
<!-- N&#45;&gt;D -->
<g id="edge12" class="edge">
<title>N&#45;&gt;D</title>
<path fill="none" stroke="black" d="M397,-271.74C397,-260.34 397,-247.6 397,-235.58"/>
<polygon fill="black" stroke="black" points="400.5,-235.26 397,-225.26 393.5,-235.26 400.5,-235.26"/>
</g>
<!-- Λ -->
<g id="node9" class="node">
<title>Λ</title>
<path fill="lightgrey" stroke="black" d="M430,-446.84C430,-446.84 364,-446.84 364,-446.84 358,-446.84 352,-440.84 352,-434.84 352,-434.84 352,-405.84 352,-405.84 352,-399.84 358,-393.84 364,-393.84 364,-393.84 430,-393.84 430,-393.84 436,-393.84 442,-399.84 442,-405.84 442,-405.84 442,-434.84 442,-434.84 442,-440.84 436,-446.84 430,-446.84"/>
<text text-anchor="middle" x="397" y="-431.64" font-family="Times,serif" font-size="14.00">Λ</text>
<text text-anchor="middle" x="397" y="-416.64" font-family="Times,serif" font-size="14.00">~</text>
<text text-anchor="middle" x="397" y="-401.64" font-family="Times,serif" font-size="14.00">ConstantData</text>
</g>
<!-- Λ&#45;&gt;N -->
<g id="edge9" class="edge">
<title>Λ&#45;&gt;N</title>
<path fill="none" stroke="black" d="M397,-393.79C397,-382.88 397,-369.79 397,-357.25"/>
<polygon fill="black" stroke="black" points="400.5,-356.91 397,-346.91 393.5,-356.91 400.5,-356.91"/>
</g>
<!-- C -->
<g id="node10" class="node">
<title>C</title>
<path fill="lightgrey" stroke="black" d="M648,-335.88C648,-335.88 582,-335.88 582,-335.88 576,-335.88 570,-329.88 570,-323.88 570,-323.88 570,-294.88 570,-294.88 570,-288.88 576,-282.88 582,-282.88 582,-282.88 648,-282.88 648,-282.88 654,-282.88 660,-288.88 660,-294.88 660,-294.88 660,-323.88 660,-323.88 660,-329.88 654,-335.88 648,-335.88"/>
<text text-anchor="middle" x="615" y="-320.68" font-family="Times,serif" font-size="14.00">C</text>
<text text-anchor="middle" x="615" y="-305.68" font-family="Times,serif" font-size="14.00">~</text>
<text text-anchor="middle" x="615" y="-290.68" font-family="Times,serif" font-size="14.00">ConstantData</text>
</g>
<!-- A_prob -->
<g id="node18" class="node">
<title>A_prob</title>
<polygon fill="none" stroke="black" points="547.5,-213.93 456.5,-213.93 456.5,-160.93 547.5,-160.93 547.5,-213.93"/>
<text text-anchor="middle" x="502" y="-198.73" font-family="Times,serif" font-size="14.00">A_prob</text>
<text text-anchor="middle" x="502" y="-183.73" font-family="Times,serif" font-size="14.00">~</text>
<text text-anchor="middle" x="502" y="-168.73" font-family="Times,serif" font-size="14.00">Deterministic</text>
</g>
<!-- C&#45;&gt;A_prob -->
<g id="edge14" class="edge">
<title>C&#45;&gt;A_prob</title>
<path fill="none" stroke="black" d="M596.22,-282.87C586.25,-269.87 573.5,-254.07 561,-240.91 554.62,-234.19 547.5,-227.36 540.48,-220.95"/>
<polygon fill="black" stroke="black" points="542.71,-218.25 532.93,-214.18 538.04,-223.47 542.71,-218.25"/>
</g>
<!-- Φ&#45;&gt;A_prob -->
<g id="edge16" class="edge">
<title>Φ&#45;&gt;A_prob</title>
<path fill="none" stroke="black" d="M506.86,-271.74C505.99,-256.77 504.98,-239.51 504.11,-224.59"/>
<polygon fill="black" stroke="black" points="507.58,-223.98 503.5,-214.2 500.59,-224.39 507.58,-223.98"/>
</g>
<!-- H -->
<g id="node13" class="node">
<title>H</title>
<polygon fill="none" stroke="black" points="327.5,-335.88 236.5,-335.88 236.5,-282.88 327.5,-282.88 327.5,-335.88"/>
<text text-anchor="middle" x="282" y="-320.68" font-family="Times,serif" font-size="14.00">H</text>
<text text-anchor="middle" x="282" y="-305.68" font-family="Times,serif" font-size="14.00">~</text>
<text text-anchor="middle" x="282" y="-290.68" font-family="Times,serif" font-size="14.00">Deterministic</text>
</g>
<!-- G&#45;&gt;H -->
<g id="edge8" class="edge">
<title>G&#45;&gt;H</title>
<path fill="none" stroke="black" d="M280.67,-382.75C280.89,-371.02 281.13,-358.03 281.34,-346.34"/>
<polygon fill="black" stroke="black" points="284.84,-346.1 281.53,-336.04 277.85,-345.97 284.84,-346.1"/>
</g>
<!-- H&#45;&gt;D -->
<g id="edge13" class="edge">
<title>H&#45;&gt;D</title>
<path fill="none" stroke="black" d="M302.81,-282.77C313.57,-269.9 327.12,-254.24 340,-240.91 346.38,-234.3 353.42,-227.48 360.3,-221.04"/>
<polygon fill="black" stroke="black" points="362.71,-223.58 367.68,-214.22 357.96,-218.44 362.71,-223.58"/>
</g>
<!-- H&#45;&gt;A_prob -->
<g id="edge15" class="edge">
<title>H&#45;&gt;A_prob</title>
<path fill="none" stroke="black" d="M296.83,-282.69C306.94,-267.75 321.8,-250.09 340,-240.91 382.97,-219.22 403.33,-250.83 448,-232.91 455.53,-229.89 462.81,-225.41 469.45,-220.45"/>
<polygon fill="black" stroke="black" points="471.9,-222.98 477.5,-213.98 467.51,-217.52 471.9,-222.98"/>
</g>
<!-- Z -->
<g id="node14" class="node">
<title>Z</title>
<ellipse fill="none" stroke="black" cx="279" cy="-531.29" rx="48.17" ry="37.45"/>
<text text-anchor="middle" x="279" y="-542.59" font-family="Times,serif" font-size="14.00">Z</text>
<text text-anchor="middle" x="279" y="-527.59" font-family="Times,serif" font-size="14.00">~</text>
<text text-anchor="middle" x="279" y="-512.59" font-family="Times,serif" font-size="14.00">Bernoulli</text>
</g>
<!-- Z&#45;&gt;G -->
<g id="edge6" class="edge">
<title>Z&#45;&gt;G</title>
<path fill="none" stroke="black" d="M279.34,-493.71C279.41,-485.53 279.49,-476.75 279.57,-468.23"/>
<polygon fill="black" stroke="black" points="283.07,-468.04 279.66,-458.01 276.07,-467.98 283.07,-468.04"/>
</g>
<!-- Π&#45;&gt;Z -->
<g id="edge4" class="edge">
<title>Π&#45;&gt;Z</title>
<path fill="none" stroke="black" d="M279,-604.66C279,-596.49 279,-587.71 279,-579.18"/>
<polygon fill="black" stroke="black" points="282.5,-578.96 279,-568.96 275.5,-578.96 282.5,-578.96"/>
</g>
<!-- A -->
<g id="node16" class="node">
<title>A</title>
<ellipse fill="lightgrey" stroke="black" cx="451" cy="-76.48" rx="48.17" ry="37.45"/>
<text text-anchor="middle" x="451" y="-87.78" font-family="Times,serif" font-size="14.00">A</text>
<text text-anchor="middle" x="451" y="-72.78" font-family="Times,serif" font-size="14.00">~</text>
<text text-anchor="middle" x="451" y="-57.78" font-family="Times,serif" font-size="14.00">Binomial</text>
</g>
<!-- D&#45;&gt;A -->
<g id="edge17" class="edge">
<title>D&#45;&gt;A</title>
<path fill="none" stroke="black" d="M413.64,-152.85C418.63,-142.79 424.17,-131.61 429.42,-121.01"/>
<polygon fill="black" stroke="black" points="432.64,-122.4 433.95,-111.88 426.37,-119.29 432.64,-122.4"/>
</g>
<!-- A_prob&#45;&gt;A -->
<g id="edge18" class="edge">
<title>A_prob&#45;&gt;A</title>
<path fill="none" stroke="black" d="M490.04,-160.89C484.49,-149.03 477.74,-134.6 471.42,-121.09"/>
<polygon fill="black" stroke="black" points="474.54,-119.51 467.13,-111.94 468.2,-122.48 474.54,-119.51"/>
</g>
</g>
</svg>
