<?xml version="1.0" encoding="UTF-8" standalone="no"?>
<!DOCTYPE svg PUBLIC "-//W3C//DTD SVG 1.1//EN"
 "http://www.w3.org/Graphics/SVG/1.1/DTD/svg11.dtd">
<!-- Generated by graphviz version 6.0.1 (0)
 -->
<!-- Pages: 1 -->
<svg width="614pt" height="777pt"
 viewBox="0.00 0.00 614.00 776.72" xmlns="http://www.w3.org/2000/svg" xmlns:xlink="http://www.w3.org/1999/xlink">
<g id="graph0" class="graph" transform="scale(1 1) rotate(0) translate(4 772.72)">
<polygon fill="white" stroke="none" points="-4,4 -4,-772.72 610,-772.72 610,4 -4,4"/>
<g id="clust3" class="cluster">
<title>clusterposition (26) x clone (5)</title>
<path fill="none" stroke="black" d="M360,-240.91C360,-240.91 546,-240.91 546,-240.91 552,-240.91 558,-246.91 558,-252.91 558,-252.91 558,-342.86 558,-342.86 558,-348.86 552,-354.86 546,-354.86 546,-354.86 360,-354.86 360,-354.86 354,-354.86 348,-348.86 348,-342.86 348,-342.86 348,-252.91 348,-252.91 348,-246.91 354,-240.91 360,-240.91"/>
<text text-anchor="middle" x="483.5" y="-248.71" font-family="Times,serif" font-size="14.00">position (26) x clone (5)</text>
</g>
<g id="clust4" class="cluster">
<title>clusterspot (10) x clone (5)</title>
<path fill="none" stroke="black" d="M110,-251.88C110,-251.88 214,-251.88 214,-251.88 220,-251.88 226,-257.88 226,-263.88 226,-263.88 226,-675.72 226,-675.72 226,-681.72 220,-687.72 214,-687.72 214,-687.72 110,-687.72 110,-687.72 104,-687.72 98,-681.72 98,-675.72 98,-675.72 98,-263.88 98,-263.88 98,-257.88 104,-251.88 110,-251.88"/>
<text text-anchor="middle" x="162" y="-259.68" font-family="Times,serif" font-size="14.00">spot (10) x clone (5)</text>
</g>
<g id="clust5" class="cluster">
<title>clusterposition (26) x spot (10)</title>
<path fill="none" stroke="black" d="M249,-8C249,-8 434,-8 434,-8 440,-8 446,-14 446,-20 446,-20 446,-220.91 446,-220.91 446,-226.91 440,-232.91 434,-232.91 434,-232.91 249,-232.91 249,-232.91 243,-232.91 237,-226.91 237,-220.91 237,-220.91 237,-20 237,-20 237,-14 243,-8 249,-8"/>
<text text-anchor="middle" x="371.5" y="-15.8" font-family="Times,serif" font-size="14.00">position (26) x spot (10)</text>
</g>
<g id="clust1" class="cluster">
<title>clusterclone (5)</title>
<path fill="none" stroke="black" d="M246,-473.79C246,-473.79 330,-473.79 330,-473.79 336,-473.79 342,-479.79 342,-485.79 342,-485.79 342,-664.74 342,-664.74 342,-670.74 336,-676.74 330,-676.74 330,-676.74 246,-676.74 246,-676.74 240,-676.74 234,-670.74 234,-664.74 234,-664.74 234,-485.79 234,-485.79 234,-479.79 240,-473.79 246,-473.79"/>
<text text-anchor="middle" x="309.5" y="-481.59" font-family="Times,serif" font-size="14.00">clone (5)</text>
</g>
<g id="clust2" class="cluster">
<title>clusterspot (10)</title>
<path fill="none" stroke="black" d="M246,-240.91C246,-240.91 328,-240.91 328,-240.91 334,-240.91 340,-246.91 340,-252.91 340,-252.91 340,-442.84 340,-442.84 340,-448.84 334,-454.84 328,-454.84 328,-454.84 246,-454.84 246,-454.84 240,-454.84 234,-448.84 234,-442.84 234,-442.84 234,-252.91 234,-252.91 234,-246.91 240,-240.91 246,-240.91"/>
<text text-anchor="middle" x="307.5" y="-248.71" font-family="Times,serif" font-size="14.00">spot (10)</text>
</g>
<!-- F0 -->
<g id="node1" class="node">
<title>F0</title>
<path fill="lightgrey" stroke="black" d="M78,-557.79C78,-557.79 12,-557.79 12,-557.79 6,-557.79 0,-551.79 0,-545.79 0,-545.79 0,-516.79 0,-516.79 0,-510.79 6,-504.79 12,-504.79 12,-504.79 78,-504.79 78,-504.79 84,-504.79 90,-510.79 90,-516.79 90,-516.79 90,-545.79 90,-545.79 90,-551.79 84,-557.79 78,-557.79"/>
<text text-anchor="middle" x="45" y="-542.59" font-family="Times,serif" font-size="14.00">F0</text>
<text text-anchor="middle" x="45" y="-527.59" font-family="Times,serif" font-size="14.00">~</text>
<text text-anchor="middle" x="45" y="-512.59" font-family="Times,serif" font-size="14.00">ConstantData</text>
</g>
<!-- G -->
<g id="node14" class="node">
<title>G</title>
<ellipse fill="none" stroke="black" cx="171" cy="-420.34" rx="43.27" ry="37.45"/>
<text text-anchor="middle" x="171" y="-431.64" font-family="Times,serif" font-size="14.00">G</text>
<text text-anchor="middle" x="171" y="-416.64" font-family="Times,serif" font-size="14.00">~</text>
<text text-anchor="middle" x="171" y="-401.64" font-family="Times,serif" font-size="14.00">Gamma</text>
</g>
<!-- F0&#45;&gt;G -->
<g id="edge7" class="edge">
<title>F0&#45;&gt;G</title>
<path fill="none" stroke="black" d="M64.93,-504.54C73.36,-494.41 83.62,-483.03 94,-473.79 104.21,-464.71 116.06,-455.91 127.36,-448.19"/>
<polygon fill="black" stroke="black" points="129.49,-450.98 135.86,-442.52 125.6,-445.16 129.49,-450.98"/>
</g>
<!-- ℓ -->
<g id="node2" class="node">
<title>ℓ</title>
<path fill="lightgrey" stroke="black" d="M428,-668.74C428,-668.74 362,-668.74 362,-668.74 356,-668.74 350,-662.74 350,-656.74 350,-656.74 350,-627.74 350,-627.74 350,-621.74 356,-615.74 362,-615.74 362,-615.74 428,-615.74 428,-615.74 434,-615.74 440,-621.74 440,-627.74 440,-627.74 440,-656.74 440,-656.74 440,-662.74 434,-668.74 428,-668.74"/>
<text text-anchor="middle" x="395" y="-653.54" font-family="Times,serif" font-size="14.00">ℓ</text>
<text text-anchor="middle" x="395" y="-638.54" font-family="Times,serif" font-size="14.00">~</text>
<text text-anchor="middle" x="395" y="-623.54" font-family="Times,serif" font-size="14.00">ConstantData</text>
</g>
<!-- F_prime -->
<g id="node7" class="node">
<title>F_prime</title>
<polygon fill="none" stroke="black" points="333.5,-557.79 242.5,-557.79 242.5,-504.79 333.5,-504.79 333.5,-557.79"/>
<text text-anchor="middle" x="288" y="-542.59" font-family="Times,serif" font-size="14.00">F_prime</text>
<text text-anchor="middle" x="288" y="-527.59" font-family="Times,serif" font-size="14.00">~</text>
<text text-anchor="middle" x="288" y="-512.59" font-family="Times,serif" font-size="14.00">Deterministic</text>
</g>
<!-- ℓ&#45;&gt;F_prime -->
<g id="edge1" class="edge">
<title>ℓ&#45;&gt;F_prime</title>
<path fill="none" stroke="black" d="M369.91,-615.7C355.13,-600.64 336.27,-581.44 320.37,-565.25"/>
<polygon fill="black" stroke="black" points="322.8,-562.73 313.3,-558.05 317.81,-567.64 322.8,-562.73"/>
</g>
<!-- p -->
<g id="node3" class="node">
<title>p</title>
<path fill="lightgrey" stroke="black" d="M486,-446.84C486,-446.84 420,-446.84 420,-446.84 414,-446.84 408,-440.84 408,-434.84 408,-434.84 408,-405.84 408,-405.84 408,-399.84 414,-393.84 420,-393.84 420,-393.84 486,-393.84 486,-393.84 492,-393.84 498,-399.84 498,-405.84 498,-405.84 498,-434.84 498,-434.84 498,-440.84 492,-446.84 486,-446.84"/>
<text text-anchor="middle" x="453" y="-431.64" font-family="Times,serif" font-size="14.00">p</text>
<text text-anchor="middle" x="453" y="-416.64" font-family="Times,serif" font-size="14.00">~</text>
<text text-anchor="middle" x="453" y="-401.64" font-family="Times,serif" font-size="14.00">ConstantData</text>
</g>
<!-- Φ -->
<g id="node10" class="node">
<title>Φ</title>
<ellipse fill="none" stroke="black" cx="507" cy="-309.38" rx="43.27" ry="37.45"/>
<text text-anchor="middle" x="507" y="-320.68" font-family="Times,serif" font-size="14.00">Φ</text>
<text text-anchor="middle" x="507" y="-305.68" font-family="Times,serif" font-size="14.00">~</text>
<text text-anchor="middle" x="507" y="-290.68" font-family="Times,serif" font-size="14.00">Gamma</text>
</g>
<!-- p&#45;&gt;Φ -->
<g id="edge10" class="edge">
<title>p&#45;&gt;Φ</title>
<path fill="none" stroke="black" d="M465.66,-393.79C471.64,-381.73 478.94,-367.01 485.73,-353.3"/>
<polygon fill="black" stroke="black" points="489.02,-354.54 490.33,-344.02 482.75,-351.43 489.02,-354.54"/>
</g>
<!-- ζ_s -->
<g id="node4" class="node">
<title>ζ_s</title>
<path fill="lightgrey" stroke="black" d="M203,-768.72C203,-768.72 137,-768.72 137,-768.72 131,-768.72 125,-762.72 125,-756.72 125,-756.72 125,-727.72 125,-727.72 125,-721.72 131,-715.72 137,-715.72 137,-715.72 203,-715.72 203,-715.72 209,-715.72 215,-721.72 215,-727.72 215,-727.72 215,-756.72 215,-756.72 215,-762.72 209,-768.72 203,-768.72"/>
<text text-anchor="middle" x="170" y="-753.52" font-family="Times,serif" font-size="14.00">ζ_s</text>
<text text-anchor="middle" x="170" y="-738.52" font-family="Times,serif" font-size="14.00">~</text>
<text text-anchor="middle" x="170" y="-723.52" font-family="Times,serif" font-size="14.00">ConstantData</text>
</g>
<!-- Π -->
<g id="node12" class="node">
<title>Π</title>
<ellipse fill="none" stroke="black" cx="170" cy="-642.24" rx="28.98" ry="37.45"/>
<text text-anchor="middle" x="170" y="-653.54" font-family="Times,serif" font-size="14.00">Π</text>
<text text-anchor="middle" x="170" y="-638.54" font-family="Times,serif" font-size="14.00">~</text>
<text text-anchor="middle" x="170" y="-623.54" font-family="Times,serif" font-size="14.00">Beta</text>
</g>
<!-- ζ_s&#45;&gt;Π -->
<g id="edge3" class="edge">
<title>ζ_s&#45;&gt;Π</title>
<path fill="none" stroke="black" d="M170,-715.48C170,-707.65 170,-698.8 170,-690.04"/>
<polygon fill="black" stroke="black" points="173.5,-689.87 170,-679.87 166.5,-689.87 173.5,-689.87"/>
</g>
<!-- r -->
<g id="node5" class="node">
<title>r</title>
<path fill="lightgrey" stroke="black" d="M594,-446.84C594,-446.84 528,-446.84 528,-446.84 522,-446.84 516,-440.84 516,-434.84 516,-434.84 516,-405.84 516,-405.84 516,-399.84 522,-393.84 528,-393.84 528,-393.84 594,-393.84 594,-393.84 600,-393.84 606,-399.84 606,-405.84 606,-405.84 606,-434.84 606,-434.84 606,-440.84 600,-446.84 594,-446.84"/>
<text text-anchor="middle" x="561" y="-431.64" font-family="Times,serif" font-size="14.00">r</text>
<text text-anchor="middle" x="561" y="-416.64" font-family="Times,serif" font-size="14.00">~</text>
<text text-anchor="middle" x="561" y="-401.64" font-family="Times,serif" font-size="14.00">ConstantData</text>
</g>
<!-- r&#45;&gt;Φ -->
<g id="edge11" class="edge">
<title>r&#45;&gt;Φ</title>
<path fill="none" stroke="black" d="M548.34,-393.79C542.36,-381.73 535.06,-367.01 528.27,-353.3"/>
<polygon fill="black" stroke="black" points="531.25,-351.43 523.67,-344.02 524.98,-354.54 531.25,-351.43"/>
</g>
<!-- F -->
<g id="node6" class="node">
<title>F</title>
<path fill="lightgrey" stroke="black" d="M320,-668.74C320,-668.74 254,-668.74 254,-668.74 248,-668.74 242,-662.74 242,-656.74 242,-656.74 242,-627.74 242,-627.74 242,-621.74 248,-615.74 254,-615.74 254,-615.74 320,-615.74 320,-615.74 326,-615.74 332,-621.74 332,-627.74 332,-627.74 332,-656.74 332,-656.74 332,-662.74 326,-668.74 320,-668.74"/>
<text text-anchor="middle" x="287" y="-653.54" font-family="Times,serif" font-size="14.00">F</text>
<text text-anchor="middle" x="287" y="-638.54" font-family="Times,serif" font-size="14.00">~</text>
<text text-anchor="middle" x="287" y="-623.54" font-family="Times,serif" font-size="14.00">ConstantData</text>
</g>
<!-- F&#45;&gt;F_prime -->
<g id="edge2" class="edge">
<title>F&#45;&gt;F_prime</title>
<path fill="none" stroke="black" d="M287.23,-615.7C287.36,-601.59 287.53,-583.84 287.67,-568.35"/>
<polygon fill="black" stroke="black" points="291.17,-568.08 287.76,-558.05 284.17,-568.02 291.17,-568.08"/>
</g>
<!-- F_prime&#45;&gt;G -->
<g id="edge6" class="edge">
<title>F_prime&#45;&gt;G</title>
<path fill="none" stroke="black" d="M262.26,-504.72C252.28,-494.94 240.7,-483.75 230,-473.79 223.15,-467.41 215.75,-460.7 208.59,-454.3"/>
<polygon fill="black" stroke="black" points="210.75,-451.53 200.95,-447.49 206.09,-456.76 210.75,-451.53"/>
</g>
<!-- N -->
<g id="node8" class="node">
<title>N</title>
<ellipse fill="none" stroke="black" cx="287" cy="-309.38" rx="41.94" ry="37.45"/>
<text text-anchor="middle" x="287" y="-320.68" font-family="Times,serif" font-size="14.00">N</text>
<text text-anchor="middle" x="287" y="-305.68" font-family="Times,serif" font-size="14.00">~</text>
<text text-anchor="middle" x="287" y="-290.68" font-family="Times,serif" font-size="14.00">Poisson</text>
</g>
<!-- D -->
<g id="node18" class="node">
<title>D</title>
<ellipse fill="lightgrey" stroke="black" cx="287" cy="-187.43" rx="41.94" ry="37.45"/>
<text text-anchor="middle" x="287" y="-198.73" font-family="Times,serif" font-size="14.00">D</text>
<text text-anchor="middle" x="287" y="-183.73" font-family="Times,serif" font-size="14.00">~</text>
<text text-anchor="middle" x="287" y="-168.73" font-family="Times,serif" font-size="14.00">Poisson</text>
</g>
<!-- N&#45;&gt;D -->
<g id="edge13" class="edge">
<title>N&#45;&gt;D</title>
<path fill="none" stroke="black" d="M287,-271.74C287,-260.34 287,-247.6 287,-235.58"/>
<polygon fill="black" stroke="black" points="290.5,-235.26 287,-225.26 283.5,-235.26 290.5,-235.26"/>
</g>
<!-- Λ -->
<g id="node9" class="node">
<title>Λ</title>
<path fill="lightgrey" stroke="black" d="M320,-446.84C320,-446.84 254,-446.84 254,-446.84 248,-446.84 242,-440.84 242,-434.84 242,-434.84 242,-405.84 242,-405.84 242,-399.84 248,-393.84 254,-393.84 254,-393.84 320,-393.84 320,-393.84 326,-393.84 332,-399.84 332,-405.84 332,-405.84 332,-434.84 332,-434.84 332,-440.84 326,-446.84 320,-446.84"/>
<text text-anchor="middle" x="287" y="-431.64" font-family="Times,serif" font-size="14.00">Λ</text>
<text text-anchor="middle" x="287" y="-416.64" font-family="Times,serif" font-size="14.00">~</text>
<text text-anchor="middle" x="287" y="-401.64" font-family="Times,serif" font-size="14.00">ConstantData</text>
</g>
<!-- Λ&#45;&gt;N -->
<g id="edge9" class="edge">
<title>Λ&#45;&gt;N</title>
<path fill="none" stroke="black" d="M287,-393.79C287,-382.88 287,-369.79 287,-357.25"/>
<polygon fill="black" stroke="black" points="290.5,-356.91 287,-346.91 283.5,-356.91 290.5,-356.91"/>
</g>
<!-- A_prob -->
<g id="node17" class="node">
<title>A_prob</title>
<polygon fill="none" stroke="black" points="437.5,-213.93 346.5,-213.93 346.5,-160.93 437.5,-160.93 437.5,-213.93"/>
<text text-anchor="middle" x="392" y="-198.73" font-family="Times,serif" font-size="14.00">A_prob</text>
<text text-anchor="middle" x="392" y="-183.73" font-family="Times,serif" font-size="14.00">~</text>
<text text-anchor="middle" x="392" y="-168.73" font-family="Times,serif" font-size="14.00">Deterministic</text>
</g>
<!-- Φ&#45;&gt;A_prob -->
<g id="edge14" class="edge">
<title>Φ&#45;&gt;A_prob</title>
<path fill="none" stroke="black" d="M485.06,-276.99C476.25,-265.2 465.67,-251.99 455,-240.91 448.4,-234.05 440.96,-227.2 433.55,-220.82"/>
<polygon fill="black" stroke="black" points="435.48,-217.87 425.58,-214.1 430.97,-223.22 435.48,-217.87"/>
</g>
<!-- C -->
<g id="node11" class="node">
<title>C</title>
<path fill="lightgrey" stroke="black" d="M434,-335.88C434,-335.88 368,-335.88 368,-335.88 362,-335.88 356,-329.88 356,-323.88 356,-323.88 356,-294.88 356,-294.88 356,-288.88 362,-282.88 368,-282.88 368,-282.88 434,-282.88 434,-282.88 440,-282.88 446,-288.88 446,-294.88 446,-294.88 446,-323.88 446,-323.88 446,-329.88 440,-335.88 434,-335.88"/>
<text text-anchor="middle" x="401" y="-320.68" font-family="Times,serif" font-size="14.00">C</text>
<text text-anchor="middle" x="401" y="-305.68" font-family="Times,serif" font-size="14.00">~</text>
<text text-anchor="middle" x="401" y="-290.68" font-family="Times,serif" font-size="14.00">ConstantData</text>
</g>
<!-- C&#45;&gt;A_prob -->
<g id="edge16" class="edge">
<title>C&#45;&gt;A_prob</title>
<path fill="none" stroke="black" d="M399.07,-282.65C397.79,-265.57 396.09,-242.93 394.68,-224.12"/>
<polygon fill="black" stroke="black" points="398.17,-223.83 393.93,-214.12 391.19,-224.35 398.17,-223.83"/>
</g>
<!-- Z -->
<g id="node13" class="node">
<title>Z</title>
<ellipse fill="none" stroke="black" cx="170" cy="-531.29" rx="48.17" ry="37.45"/>
<text text-anchor="middle" x="170" y="-542.59" font-family="Times,serif" font-size="14.00">Z</text>
<text text-anchor="middle" x="170" y="-527.59" font-family="Times,serif" font-size="14.00">~</text>
<text text-anchor="middle" x="170" y="-512.59" font-family="Times,serif" font-size="14.00">Bernoulli</text>
</g>
<!-- Π&#45;&gt;Z -->
<g id="edge4" class="edge">
<title>Π&#45;&gt;Z</title>
<path fill="none" stroke="black" d="M170,-604.66C170,-596.49 170,-587.71 170,-579.18"/>
<polygon fill="black" stroke="black" points="173.5,-578.96 170,-568.96 166.5,-578.96 173.5,-578.96"/>
</g>
<!-- Z&#45;&gt;G -->
<g id="edge5" class="edge">
<title>Z&#45;&gt;G</title>
<path fill="none" stroke="black" d="M170.34,-493.71C170.41,-485.53 170.49,-476.75 170.57,-468.23"/>
<polygon fill="black" stroke="black" points="174.07,-468.04 170.66,-458.01 167.07,-467.98 174.07,-468.04"/>
</g>
<!-- H -->
<g id="node15" class="node">
<title>H</title>
<polygon fill="none" stroke="black" points="217.5,-335.88 126.5,-335.88 126.5,-282.88 217.5,-282.88 217.5,-335.88"/>
<text text-anchor="middle" x="172" y="-320.68" font-family="Times,serif" font-size="14.00">H</text>
<text text-anchor="middle" x="172" y="-305.68" font-family="Times,serif" font-size="14.00">~</text>
<text text-anchor="middle" x="172" y="-290.68" font-family="Times,serif" font-size="14.00">Deterministic</text>
</g>
<!-- G&#45;&gt;H -->
<g id="edge8" class="edge">
<title>G&#45;&gt;H</title>
<path fill="none" stroke="black" d="M171.34,-382.75C171.44,-371.02 171.56,-358.03 171.67,-346.34"/>
<polygon fill="black" stroke="black" points="175.17,-346.07 171.76,-336.04 168.17,-346 175.17,-346.07"/>
</g>
<!-- H&#45;&gt;A_prob -->
<g id="edge15" class="edge">
<title>H&#45;&gt;A_prob</title>
<path fill="none" stroke="black" d="M186.83,-282.69C196.94,-267.75 211.8,-250.09 230,-240.91 272.97,-219.22 293.33,-250.83 338,-232.91 345.53,-229.89 352.81,-225.41 359.45,-220.45"/>
<polygon fill="black" stroke="black" points="361.9,-222.98 367.5,-213.98 357.51,-217.52 361.9,-222.98"/>
</g>
<!-- H&#45;&gt;D -->
<g id="edge12" class="edge">
<title>H&#45;&gt;D</title>
<path fill="none" stroke="black" d="M192.81,-282.77C203.57,-269.9 217.12,-254.24 230,-240.91 236.38,-234.3 243.42,-227.48 250.3,-221.04"/>
<polygon fill="black" stroke="black" points="252.71,-223.58 257.68,-214.22 247.96,-218.44 252.71,-223.58"/>
</g>
<!-- A -->
<g id="node16" class="node">
<title>A</title>
<ellipse fill="lightgrey" stroke="black" cx="341" cy="-76.48" rx="48.17" ry="37.45"/>
<text text-anchor="middle" x="341" y="-87.78" font-family="Times,serif" font-size="14.00">A</text>
<text text-anchor="middle" x="341" y="-72.78" font-family="Times,serif" font-size="14.00">~</text>
<text text-anchor="middle" x="341" y="-57.78" font-family="Times,serif" font-size="14.00">Binomial</text>
</g>
<!-- A_prob&#45;&gt;A -->
<g id="edge17" class="edge">
<title>A_prob&#45;&gt;A</title>
<path fill="none" stroke="black" d="M380.04,-160.89C374.49,-149.03 367.74,-134.6 361.42,-121.09"/>
<polygon fill="black" stroke="black" points="364.54,-119.51 357.13,-111.94 358.2,-122.48 364.54,-119.51"/>
</g>
<!-- D&#45;&gt;A -->
<g id="edge18" class="edge">
<title>D&#45;&gt;A</title>
<path fill="none" stroke="black" d="M303.64,-152.85C308.63,-142.79 314.17,-131.61 319.42,-121.01"/>
<polygon fill="black" stroke="black" points="322.64,-122.4 323.95,-111.88 316.37,-119.29 322.64,-122.4"/>
</g>
</g>
</svg>
