<?xml version="1.0" encoding="UTF-8" standalone="no"?>
<!DOCTYPE svg PUBLIC "-//W3C//DTD SVG 1.1//EN"
 "http://www.w3.org/Graphics/SVG/1.1/DTD/svg11.dtd">
<!-- Generated by graphviz version 6.0.1 (0)
 -->
<!-- Pages: 1 -->
<svg width="730pt" height="777pt"
 viewBox="0.00 0.00 730.00 776.72" xmlns="http://www.w3.org/2000/svg" xmlns:xlink="http://www.w3.org/1999/xlink">
<g id="graph0" class="graph" transform="scale(1 1) rotate(0) translate(4 772.72)">
<polygon fill="white" stroke="none" points="-4,4 -4,-772.72 726,-772.72 726,4 -4,4"/>
<g id="clust1" class="cluster">
<title>clusterclone (5)</title>
<path fill="none" stroke="black" d="M110,-473.79C110,-473.79 194,-473.79 194,-473.79 200,-473.79 206,-479.79 206,-485.79 206,-485.79 206,-664.74 206,-664.74 206,-670.74 200,-676.74 194,-676.74 194,-676.74 110,-676.74 110,-676.74 104,-676.74 98,-670.74 98,-664.74 98,-664.74 98,-485.79 98,-485.79 98,-479.79 104,-473.79 110,-473.79"/>
<text text-anchor="middle" x="173.5" y="-481.59" font-family="Times,serif" font-size="14.00">clone (5)</text>
</g>
<g id="clust2" class="cluster">
<title>clusterspot (10)</title>
<path fill="none" stroke="black" d="M362,-240.91C362,-240.91 444,-240.91 444,-240.91 450,-240.91 456,-246.91 456,-252.91 456,-252.91 456,-442.84 456,-442.84 456,-448.84 450,-454.84 444,-454.84 444,-454.84 362,-454.84 362,-454.84 356,-454.84 350,-448.84 350,-442.84 350,-442.84 350,-252.91 350,-252.91 350,-246.91 356,-240.91 362,-240.91"/>
<text text-anchor="middle" x="423.5" y="-248.71" font-family="Times,serif" font-size="14.00">spot (10)</text>
</g>
<g id="clust3" class="cluster">
<title>clusterposition (26) x clone (5)</title>
<path fill="none" stroke="black" d="M476,-240.91C476,-240.91 662,-240.91 662,-240.91 668,-240.91 674,-246.91 674,-252.91 674,-252.91 674,-342.86 674,-342.86 674,-348.86 668,-354.86 662,-354.86 662,-354.86 476,-354.86 476,-354.86 470,-354.86 464,-348.86 464,-342.86 464,-342.86 464,-252.91 464,-252.91 464,-246.91 470,-240.91 476,-240.91"/>
<text text-anchor="middle" x="599.5" y="-248.71" font-family="Times,serif" font-size="14.00">position (26) x clone (5)</text>
</g>
<g id="clust4" class="cluster">
<title>clusterspot (10) x clone (5)</title>
<path fill="none" stroke="black" d="M226,-251.88C226,-251.88 330,-251.88 330,-251.88 336,-251.88 342,-257.88 342,-263.88 342,-263.88 342,-675.72 342,-675.72 342,-681.72 336,-687.72 330,-687.72 330,-687.72 226,-687.72 226,-687.72 220,-687.72 214,-681.72 214,-675.72 214,-675.72 214,-263.88 214,-263.88 214,-257.88 220,-251.88 226,-251.88"/>
<text text-anchor="middle" x="278" y="-259.68" font-family="Times,serif" font-size="14.00">spot (10) x clone (5)</text>
</g>
<g id="clust5" class="cluster">
<title>clusterposition (26) x spot (10)</title>
<path fill="none" stroke="black" d="M365,-8C365,-8 550,-8 550,-8 556,-8 562,-14 562,-20 562,-20 562,-220.91 562,-220.91 562,-226.91 556,-232.91 550,-232.91 550,-232.91 365,-232.91 365,-232.91 359,-232.91 353,-226.91 353,-220.91 353,-220.91 353,-20 353,-20 353,-14 359,-8 365,-8"/>
<text text-anchor="middle" x="487.5" y="-15.8" font-family="Times,serif" font-size="14.00">position (26) x spot (10)</text>
</g>
<!-- ℓ -->
<g id="node1" class="node">
<title>ℓ</title>
<path fill="lightgrey" stroke="black" d="M78,-668.74C78,-668.74 12,-668.74 12,-668.74 6,-668.74 0,-662.74 0,-656.74 0,-656.74 0,-627.74 0,-627.74 0,-621.74 6,-615.74 12,-615.74 12,-615.74 78,-615.74 78,-615.74 84,-615.74 90,-621.74 90,-627.74 90,-627.74 90,-656.74 90,-656.74 90,-662.74 84,-668.74 78,-668.74"/>
<text text-anchor="middle" x="45" y="-653.54" font-family="Times,serif" font-size="14.00">ℓ</text>
<text text-anchor="middle" x="45" y="-638.54" font-family="Times,serif" font-size="14.00">~</text>
<text text-anchor="middle" x="45" y="-623.54" font-family="Times,serif" font-size="14.00">ConstantData</text>
</g>
<!-- F_prime -->
<g id="node6" class="node">
<title>F_prime</title>
<polygon fill="none" stroke="black" points="197.5,-557.79 106.5,-557.79 106.5,-504.79 197.5,-504.79 197.5,-557.79"/>
<text text-anchor="middle" x="152" y="-542.59" font-family="Times,serif" font-size="14.00">F_prime</text>
<text text-anchor="middle" x="152" y="-527.59" font-family="Times,serif" font-size="14.00">~</text>
<text text-anchor="middle" x="152" y="-512.59" font-family="Times,serif" font-size="14.00">Deterministic</text>
</g>
<!-- ℓ&#45;&gt;F_prime -->
<g id="edge1" class="edge">
<title>ℓ&#45;&gt;F_prime</title>
<path fill="none" stroke="black" d="M70.09,-615.7C84.87,-600.64 103.73,-581.44 119.63,-565.25"/>
<polygon fill="black" stroke="black" points="122.19,-567.64 126.7,-558.05 117.2,-562.73 122.19,-567.64"/>
</g>
<!-- p -->
<g id="node2" class="node">
<title>p</title>
<path fill="lightgrey" stroke="black" d="M602,-446.84C602,-446.84 536,-446.84 536,-446.84 530,-446.84 524,-440.84 524,-434.84 524,-434.84 524,-405.84 524,-405.84 524,-399.84 530,-393.84 536,-393.84 536,-393.84 602,-393.84 602,-393.84 608,-393.84 614,-399.84 614,-405.84 614,-405.84 614,-434.84 614,-434.84 614,-440.84 608,-446.84 602,-446.84"/>
<text text-anchor="middle" x="569" y="-431.64" font-family="Times,serif" font-size="14.00">p</text>
<text text-anchor="middle" x="569" y="-416.64" font-family="Times,serif" font-size="14.00">~</text>
<text text-anchor="middle" x="569" y="-401.64" font-family="Times,serif" font-size="14.00">ConstantData</text>
</g>
<!-- Φ -->
<g id="node10" class="node">
<title>Φ</title>
<ellipse fill="none" stroke="black" cx="623" cy="-309.38" rx="43.27" ry="37.45"/>
<text text-anchor="middle" x="623" y="-320.68" font-family="Times,serif" font-size="14.00">Φ</text>
<text text-anchor="middle" x="623" y="-305.68" font-family="Times,serif" font-size="14.00">~</text>
<text text-anchor="middle" x="623" y="-290.68" font-family="Times,serif" font-size="14.00">Gamma</text>
</g>
<!-- p&#45;&gt;Φ -->
<g id="edge10" class="edge">
<title>p&#45;&gt;Φ</title>
<path fill="none" stroke="black" d="M581.66,-393.79C587.64,-381.73 594.94,-367.01 601.73,-353.3"/>
<polygon fill="black" stroke="black" points="605.02,-354.54 606.33,-344.02 598.75,-351.43 605.02,-354.54"/>
</g>
<!-- r -->
<g id="node3" class="node">
<title>r</title>
<path fill="lightgrey" stroke="black" d="M710,-446.84C710,-446.84 644,-446.84 644,-446.84 638,-446.84 632,-440.84 632,-434.84 632,-434.84 632,-405.84 632,-405.84 632,-399.84 638,-393.84 644,-393.84 644,-393.84 710,-393.84 710,-393.84 716,-393.84 722,-399.84 722,-405.84 722,-405.84 722,-434.84 722,-434.84 722,-440.84 716,-446.84 710,-446.84"/>
<text text-anchor="middle" x="677" y="-431.64" font-family="Times,serif" font-size="14.00">r</text>
<text text-anchor="middle" x="677" y="-416.64" font-family="Times,serif" font-size="14.00">~</text>
<text text-anchor="middle" x="677" y="-401.64" font-family="Times,serif" font-size="14.00">ConstantData</text>
</g>
<!-- r&#45;&gt;Φ -->
<g id="edge11" class="edge">
<title>r&#45;&gt;Φ</title>
<path fill="none" stroke="black" d="M664.34,-393.79C658.36,-381.73 651.06,-367.01 644.27,-353.3"/>
<polygon fill="black" stroke="black" points="647.25,-351.43 639.67,-344.02 640.98,-354.54 647.25,-351.43"/>
</g>
<!-- ζ_s -->
<g id="node4" class="node">
<title>ζ_s</title>
<path fill="lightgrey" stroke="black" d="M318,-768.72C318,-768.72 252,-768.72 252,-768.72 246,-768.72 240,-762.72 240,-756.72 240,-756.72 240,-727.72 240,-727.72 240,-721.72 246,-715.72 252,-715.72 252,-715.72 318,-715.72 318,-715.72 324,-715.72 330,-721.72 330,-727.72 330,-727.72 330,-756.72 330,-756.72 330,-762.72 324,-768.72 318,-768.72"/>
<text text-anchor="middle" x="285" y="-753.52" font-family="Times,serif" font-size="14.00">ζ_s</text>
<text text-anchor="middle" x="285" y="-738.52" font-family="Times,serif" font-size="14.00">~</text>
<text text-anchor="middle" x="285" y="-723.52" font-family="Times,serif" font-size="14.00">ConstantData</text>
</g>
<!-- Π -->
<g id="node14" class="node">
<title>Π</title>
<ellipse fill="none" stroke="black" cx="285" cy="-642.24" rx="28.98" ry="37.45"/>
<text text-anchor="middle" x="285" y="-653.54" font-family="Times,serif" font-size="14.00">Π</text>
<text text-anchor="middle" x="285" y="-638.54" font-family="Times,serif" font-size="14.00">~</text>
<text text-anchor="middle" x="285" y="-623.54" font-family="Times,serif" font-size="14.00">Beta</text>
</g>
<!-- ζ_s&#45;&gt;Π -->
<g id="edge3" class="edge">
<title>ζ_s&#45;&gt;Π</title>
<path fill="none" stroke="black" d="M285,-715.48C285,-707.65 285,-698.8 285,-690.04"/>
<polygon fill="black" stroke="black" points="288.5,-689.87 285,-679.87 281.5,-689.87 288.5,-689.87"/>
</g>
<!-- F0 -->
<g id="node5" class="node">
<title>F0</title>
<path fill="lightgrey" stroke="black" d="M429,-557.79C429,-557.79 363,-557.79 363,-557.79 357,-557.79 351,-551.79 351,-545.79 351,-545.79 351,-516.79 351,-516.79 351,-510.79 357,-504.79 363,-504.79 363,-504.79 429,-504.79 429,-504.79 435,-504.79 441,-510.79 441,-516.79 441,-516.79 441,-545.79 441,-545.79 441,-551.79 435,-557.79 429,-557.79"/>
<text text-anchor="middle" x="396" y="-542.59" font-family="Times,serif" font-size="14.00">F0</text>
<text text-anchor="middle" x="396" y="-527.59" font-family="Times,serif" font-size="14.00">~</text>
<text text-anchor="middle" x="396" y="-512.59" font-family="Times,serif" font-size="14.00">ConstantData</text>
</g>
<!-- G -->
<g id="node12" class="node">
<title>G</title>
<ellipse fill="none" stroke="black" cx="286" cy="-420.34" rx="43.27" ry="37.45"/>
<text text-anchor="middle" x="286" y="-431.64" font-family="Times,serif" font-size="14.00">G</text>
<text text-anchor="middle" x="286" y="-416.64" font-family="Times,serif" font-size="14.00">~</text>
<text text-anchor="middle" x="286" y="-401.64" font-family="Times,serif" font-size="14.00">Gamma</text>
</g>
<!-- F0&#45;&gt;G -->
<g id="edge7" class="edge">
<title>F0&#45;&gt;G</title>
<path fill="none" stroke="black" d="M374.52,-504.63C365.92,-494.73 355.75,-483.49 346,-473.79 339.3,-467.13 331.9,-460.29 324.66,-453.84"/>
<polygon fill="black" stroke="black" points="326.72,-450.99 316.9,-447.02 322.1,-456.25 326.72,-450.99"/>
</g>
<!-- F_prime&#45;&gt;G -->
<g id="edge6" class="edge">
<title>F_prime&#45;&gt;G</title>
<path fill="none" stroke="black" d="M176.55,-504.58C186.57,-494.57 198.49,-483.25 210,-473.79 220.36,-465.27 232.07,-456.72 243.13,-449.06"/>
<polygon fill="black" stroke="black" points="245.15,-451.92 251.44,-443.4 241.21,-446.14 245.15,-451.92"/>
</g>
<!-- F -->
<g id="node7" class="node">
<title>F</title>
<path fill="lightgrey" stroke="black" d="M186,-668.74C186,-668.74 120,-668.74 120,-668.74 114,-668.74 108,-662.74 108,-656.74 108,-656.74 108,-627.74 108,-627.74 108,-621.74 114,-615.74 120,-615.74 120,-615.74 186,-615.74 186,-615.74 192,-615.74 198,-621.74 198,-627.74 198,-627.74 198,-656.74 198,-656.74 198,-662.74 192,-668.74 186,-668.74"/>
<text text-anchor="middle" x="153" y="-653.54" font-family="Times,serif" font-size="14.00">F</text>
<text text-anchor="middle" x="153" y="-638.54" font-family="Times,serif" font-size="14.00">~</text>
<text text-anchor="middle" x="153" y="-623.54" font-family="Times,serif" font-size="14.00">ConstantData</text>
</g>
<!-- F&#45;&gt;F_prime -->
<g id="edge2" class="edge">
<title>F&#45;&gt;F_prime</title>
<path fill="none" stroke="black" d="M152.77,-615.7C152.64,-601.59 152.47,-583.84 152.33,-568.35"/>
<polygon fill="black" stroke="black" points="155.83,-568.02 152.24,-558.05 148.83,-568.08 155.83,-568.02"/>
</g>
<!-- N -->
<g id="node8" class="node">
<title>N</title>
<ellipse fill="none" stroke="black" cx="403" cy="-309.38" rx="41.94" ry="37.45"/>
<text text-anchor="middle" x="403" y="-320.68" font-family="Times,serif" font-size="14.00">N</text>
<text text-anchor="middle" x="403" y="-305.68" font-family="Times,serif" font-size="14.00">~</text>
<text text-anchor="middle" x="403" y="-290.68" font-family="Times,serif" font-size="14.00">Poisson</text>
</g>
<!-- D -->
<g id="node18" class="node">
<title>D</title>
<ellipse fill="lightgrey" stroke="black" cx="403" cy="-187.43" rx="41.94" ry="37.45"/>
<text text-anchor="middle" x="403" y="-198.73" font-family="Times,serif" font-size="14.00">D</text>
<text text-anchor="middle" x="403" y="-183.73" font-family="Times,serif" font-size="14.00">~</text>
<text text-anchor="middle" x="403" y="-168.73" font-family="Times,serif" font-size="14.00">Poisson</text>
</g>
<!-- N&#45;&gt;D -->
<g id="edge12" class="edge">
<title>N&#45;&gt;D</title>
<path fill="none" stroke="black" d="M403,-271.74C403,-260.34 403,-247.6 403,-235.58"/>
<polygon fill="black" stroke="black" points="406.5,-235.26 403,-225.26 399.5,-235.26 406.5,-235.26"/>
</g>
<!-- Λ -->
<g id="node9" class="node">
<title>Λ</title>
<path fill="lightgrey" stroke="black" d="M436,-446.84C436,-446.84 370,-446.84 370,-446.84 364,-446.84 358,-440.84 358,-434.84 358,-434.84 358,-405.84 358,-405.84 358,-399.84 364,-393.84 370,-393.84 370,-393.84 436,-393.84 436,-393.84 442,-393.84 448,-399.84 448,-405.84 448,-405.84 448,-434.84 448,-434.84 448,-440.84 442,-446.84 436,-446.84"/>
<text text-anchor="middle" x="403" y="-431.64" font-family="Times,serif" font-size="14.00">Λ</text>
<text text-anchor="middle" x="403" y="-416.64" font-family="Times,serif" font-size="14.00">~</text>
<text text-anchor="middle" x="403" y="-401.64" font-family="Times,serif" font-size="14.00">ConstantData</text>
</g>
<!-- Λ&#45;&gt;N -->
<g id="edge9" class="edge">
<title>Λ&#45;&gt;N</title>
<path fill="none" stroke="black" d="M403,-393.79C403,-382.88 403,-369.79 403,-357.25"/>
<polygon fill="black" stroke="black" points="406.5,-356.91 403,-346.91 399.5,-356.91 406.5,-356.91"/>
</g>
<!-- A_prob -->
<g id="node16" class="node">
<title>A_prob</title>
<polygon fill="none" stroke="black" points="553.5,-213.93 462.5,-213.93 462.5,-160.93 553.5,-160.93 553.5,-213.93"/>
<text text-anchor="middle" x="508" y="-198.73" font-family="Times,serif" font-size="14.00">A_prob</text>
<text text-anchor="middle" x="508" y="-183.73" font-family="Times,serif" font-size="14.00">~</text>
<text text-anchor="middle" x="508" y="-168.73" font-family="Times,serif" font-size="14.00">Deterministic</text>
</g>
<!-- Φ&#45;&gt;A_prob -->
<g id="edge14" class="edge">
<title>Φ&#45;&gt;A_prob</title>
<path fill="none" stroke="black" d="M601.06,-276.99C592.25,-265.2 581.67,-251.99 571,-240.91 564.4,-234.05 556.96,-227.2 549.55,-220.82"/>
<polygon fill="black" stroke="black" points="551.48,-217.87 541.58,-214.1 546.97,-223.22 551.48,-217.87"/>
</g>
<!-- C -->
<g id="node11" class="node">
<title>C</title>
<path fill="lightgrey" stroke="black" d="M550,-335.88C550,-335.88 484,-335.88 484,-335.88 478,-335.88 472,-329.88 472,-323.88 472,-323.88 472,-294.88 472,-294.88 472,-288.88 478,-282.88 484,-282.88 484,-282.88 550,-282.88 550,-282.88 556,-282.88 562,-288.88 562,-294.88 562,-294.88 562,-323.88 562,-323.88 562,-329.88 556,-335.88 550,-335.88"/>
<text text-anchor="middle" x="517" y="-320.68" font-family="Times,serif" font-size="14.00">C</text>
<text text-anchor="middle" x="517" y="-305.68" font-family="Times,serif" font-size="14.00">~</text>
<text text-anchor="middle" x="517" y="-290.68" font-family="Times,serif" font-size="14.00">ConstantData</text>
</g>
<!-- C&#45;&gt;A_prob -->
<g id="edge16" class="edge">
<title>C&#45;&gt;A_prob</title>
<path fill="none" stroke="black" d="M515.07,-282.65C513.79,-265.57 512.09,-242.93 510.68,-224.12"/>
<polygon fill="black" stroke="black" points="514.17,-223.83 509.93,-214.12 507.19,-224.35 514.17,-223.83"/>
</g>
<!-- H -->
<g id="node15" class="node">
<title>H</title>
<polygon fill="none" stroke="black" points="333.5,-335.88 242.5,-335.88 242.5,-282.88 333.5,-282.88 333.5,-335.88"/>
<text text-anchor="middle" x="288" y="-320.68" font-family="Times,serif" font-size="14.00">H</text>
<text text-anchor="middle" x="288" y="-305.68" font-family="Times,serif" font-size="14.00">~</text>
<text text-anchor="middle" x="288" y="-290.68" font-family="Times,serif" font-size="14.00">Deterministic</text>
</g>
<!-- G&#45;&gt;H -->
<g id="edge8" class="edge">
<title>G&#45;&gt;H</title>
<path fill="none" stroke="black" d="M286.67,-382.75C286.89,-371.02 287.13,-358.03 287.34,-346.34"/>
<polygon fill="black" stroke="black" points="290.84,-346.1 287.53,-336.04 283.85,-345.97 290.84,-346.1"/>
</g>
<!-- Z -->
<g id="node13" class="node">
<title>Z</title>
<ellipse fill="none" stroke="black" cx="285" cy="-531.29" rx="48.17" ry="37.45"/>
<text text-anchor="middle" x="285" y="-542.59" font-family="Times,serif" font-size="14.00">Z</text>
<text text-anchor="middle" x="285" y="-527.59" font-family="Times,serif" font-size="14.00">~</text>
<text text-anchor="middle" x="285" y="-512.59" font-family="Times,serif" font-size="14.00">Bernoulli</text>
</g>
<!-- Z&#45;&gt;G -->
<g id="edge5" class="edge">
<title>Z&#45;&gt;G</title>
<path fill="none" stroke="black" d="M285.34,-493.71C285.41,-485.53 285.49,-476.75 285.57,-468.23"/>
<polygon fill="black" stroke="black" points="289.07,-468.04 285.66,-458.01 282.07,-467.98 289.07,-468.04"/>
</g>
<!-- Π&#45;&gt;Z -->
<g id="edge4" class="edge">
<title>Π&#45;&gt;Z</title>
<path fill="none" stroke="black" d="M285,-604.66C285,-596.49 285,-587.71 285,-579.18"/>
<polygon fill="black" stroke="black" points="288.5,-578.96 285,-568.96 281.5,-578.96 288.5,-578.96"/>
</g>
<!-- H&#45;&gt;A_prob -->
<g id="edge15" class="edge">
<title>H&#45;&gt;A_prob</title>
<path fill="none" stroke="black" d="M302.83,-282.69C312.94,-267.75 327.8,-250.09 346,-240.91 388.97,-219.22 409.33,-250.83 454,-232.91 461.53,-229.89 468.81,-225.41 475.45,-220.45"/>
<polygon fill="black" stroke="black" points="477.9,-222.98 483.5,-213.98 473.51,-217.52 477.9,-222.98"/>
</g>
<!-- H&#45;&gt;D -->
<g id="edge13" class="edge">
<title>H&#45;&gt;D</title>
<path fill="none" stroke="black" d="M308.81,-282.77C319.57,-269.9 333.12,-254.24 346,-240.91 352.38,-234.3 359.42,-227.48 366.3,-221.04"/>
<polygon fill="black" stroke="black" points="368.71,-223.58 373.68,-214.22 363.96,-218.44 368.71,-223.58"/>
</g>
<!-- A -->
<g id="node17" class="node">
<title>A</title>
<ellipse fill="lightgrey" stroke="black" cx="457" cy="-76.48" rx="48.17" ry="37.45"/>
<text text-anchor="middle" x="457" y="-87.78" font-family="Times,serif" font-size="14.00">A</text>
<text text-anchor="middle" x="457" y="-72.78" font-family="Times,serif" font-size="14.00">~</text>
<text text-anchor="middle" x="457" y="-57.78" font-family="Times,serif" font-size="14.00">Binomial</text>
</g>
<!-- A_prob&#45;&gt;A -->
<g id="edge17" class="edge">
<title>A_prob&#45;&gt;A</title>
<path fill="none" stroke="black" d="M496.04,-160.89C490.49,-149.03 483.74,-134.6 477.42,-121.09"/>
<polygon fill="black" stroke="black" points="480.54,-119.51 473.13,-111.94 474.2,-122.48 480.54,-119.51"/>
</g>
<!-- D&#45;&gt;A -->
<g id="edge18" class="edge">
<title>D&#45;&gt;A</title>
<path fill="none" stroke="black" d="M419.64,-152.85C424.63,-142.79 430.17,-131.61 435.42,-121.01"/>
<polygon fill="black" stroke="black" points="438.64,-122.4 439.95,-111.88 432.37,-119.29 438.64,-122.4"/>
</g>
</g>
</svg>
